# xmcd
#
# Track frame offsets: 
#        150
#        14315
#        27919
#        48983
#        60434
#        73521
#        90709
#        104345
#        115763
#        128911
#        143407
#        156154
#        170084
#        183789
#        197494
#        208177
#        221332
#        232737
#        243458
#        255446
#        266903
#
# Disc length: 3679 seconds
#
# Revision: 1
# Processed by: cddbd v1.5.2PL0 Copyright (c) Steve Scherf et al.
# Submitted via: ExactAudioCopyFreeDBPlugin 1.0
#
DISCID=1d0e5d15
DTITLE=Various Artist - The Birth Of British Blues CD 4 - Hoochie Coochie, 20
DTITLE=15
DYEAR=2015
DGENRE=Blues
TTITLE0=Beryl Bryden With Monty Sunshine's Jazz Band - Young Woman's B
TTITLE0=lues (1961)
TTITLE1=Davy Graham - Davy's Train Blues (1962)
TTITLE2=Davy Graham With Alexis Korner - 3-4 AD (1962)
TTITLE3=Alexis Korner's Blues Incorperated ft. Cyril Davies - Gotta Mo
TTITLE3=ve (1962)
TTITLE4=Alexis Korner's Blues Incorperated ft. Cyril Davies - Rain is 
TTITLE4=Such A Lonesome Sound (1962)
TTITLE5=Alexis Korner's Blues Incorperated ft. Cyril Davies - I Got My
TTITLE5=Brand On You (1962)
TTITLE6=Alexis Korner's Blues Incorperated ft. Cyril Davies - Spooky B
TTITLE6=ut Nice (1962)
TTITLE7=Alexis Korner's Blues Incorperated ft. Cyril Davies - Keep You
TTITLE7=r Hands Off (1962)
TTITLE8=Alexis Korner's Blues Incorperated ft. Cyril Davies - A Tiger 
TTITLE8=In Your Tank (1962)
TTITLE9=Alexis Korner's Blues Incorperated ft. Cyril Davies - I Got My
TTITLE9=Mojo Working (1962)
TTITLE10=Alexis Korner's Blues Incorperated ft. Cyril Davies - Finkle'
TTITLE10=s Cafe (1962)
TTITLE11=Alexis Korner's Blues Incorperated ft. Cyril Davies - Hoochie
TTITLE11=Coochie (1962)
TTITLE12=Alexis Korner's Blues Incorperated ft. Cyril Davies - Down To
TTITLE12=wn (1962)
TTITLE13=Alexis Korner's Blues Incorperated ft. Cyril Davies - How Lon
TTITLE13=g, How Long, Blues (1962)
TTITLE14=Alexis Korner's Blues Incorperated ft. Cyril Davies - I Thoug
TTITLE14=ht I Heard That Train Whistle Blow (1962)
TTITLE15=The Roundhouse Jug Four - KC Moan (1961)
TTITLE16=The Roundhouse Jug Four - Hesitation Blues (1961)
TTITLE17=The Roundhouse Jug Four - It's The Same Old Thing (1961)
TTITLE18=The Roundhouse Jug Four - Short Legs Shuffle (1961)
TTITLE19=Johnny Kidd and The Pirates - I Can Tell (1962)
TTITLE20=Johnny Kidd and The Pirates - A Shot Of Rythm and Blues (1962)
EXTD=
EXTT0=
EXTT1=
EXTT2=
EXTT3=
EXTT4=
EXTT5=
EXTT6=
EXTT7=
EXTT8=
EXTT9=
EXTT10=
EXTT11=
EXTT12=
EXTT13=
EXTT14=
EXTT15=
EXTT16=
EXTT17=
EXTT18=
EXTT19=
EXTT20=
PLAYORDER=
